# xmcd
# 
# Track frame offsets:
#	150
#	16558
#	38307
#	56220
#	71918
#	89472
#	104657
#	119362
#	142986
#	163992
#	179716
#	200753
#
# Disc length: 2984 seconds
#
# Revision: 2
# Processed by: cddbd v1.5.1PL0 Copyright (c) Steve Scherf et al.
# Submitted via: Audio-CD-Archiv 3.00.486
#
DISCID=af0ba60c
DTITLE=Septeto Nacional - Ignacio Pineiro (Cuba) - EL Sabor De La Tradicion
DYEAR=1900
DGENRE=country
TTITLE0=Consuelante Como Yo
TTITLE1=Amor De Loca Juventud
TTITLE2=Cascaraunafana
TTITLE3=Sin Ella No Puedo Vivir
TTITLE4=Congo Ta Jose
TTITLE5=Recordar Es Vivir
TTITLE6=Demuestrame Tu
TTITLE7=Angelitos Negros
TTITLE8=El Sabor De La Tradition
TTITLE9=Sublime Ilusion
TTITLE10=Cuandos Muy Lejos Estoy
TTITLE11=Maria Teresa
EXTD=
EXTT0=
EXTT1=
EXTT2=
EXTT3=
EXTT4=
EXTT5=
EXTT6=
EXTT7=
EXTT8=
EXTT9=
EXTT10=
EXTT11=
PLAYORDER=
